<svg width="1600" height="157" viewBox="0 0 1600 157" fill="none" xmlns="http://www.w3.org/2000/svg">
<rect width="1600" height="130" fill="black" fill-opacity="0.9"/>
<rect x="418" y="15" width="90" height="46" fill="white"/>
<path d="M454.828 54.52H449.608C447.556 54.52 445.9 54.304 445.9 50.884V45.484H439.924C438.7 50.236 435.64 53.62 428.44 55.312L426.496 51.64C432.184 50.668 434.884 48.796 436.108 45.484H428.044V41.884H436.828L436.864 41.704C436.972 40.264 437.008 38.824 437.044 37.312H433.984V36.016C432.076 37.24 430.024 38.284 427.828 39.112L426.064 35.512C428.368 34.9 430.528 33.928 432.436 32.74C430.708 31.264 428.656 29.896 426.928 28.924L429.268 25.936C431.356 27.268 433.48 28.888 435.424 30.58C437.188 29.068 438.592 27.448 439.456 25.9H430.96V22.336H444.208C444.928 23.56 445.756 24.748 446.656 25.864C448.456 24.64 450.04 23.092 451.336 21.364L454.072 23.668C452.704 25.216 450.832 26.98 448.96 28.312C449.752 29.068 450.616 29.788 451.588 30.436C453.604 28.924 455.224 27.16 456.556 25.288L459.256 27.664C457.996 29.212 456.412 30.868 454.612 32.272C456.304 33.172 458.212 33.928 460.372 34.54L458.716 38.32C456.808 37.564 454.936 36.7 453.172 35.692V37.312H449.572V41.884H458.428V45.484H449.572V49.804C449.572 50.812 450.148 50.848 450.796 50.848H454.324C455.728 50.848 456.088 50.704 456.484 46.348L460.084 48.184C459.112 54.232 458.068 54.52 454.828 54.52ZM437.116 33.748H450.076C447.268 31.768 444.856 29.464 443.092 26.872C441.58 29.392 439.564 31.696 437.116 33.748ZM445.9 41.884V37.312H440.716C440.716 38.68 440.68 40.012 440.572 41.38C440.572 41.56 440.536 41.74 440.536 41.884H445.9ZM499.72 54.016H466.312V50.236H481.288V42.784L470.56 42.82V39.04H481.288V32.344H472.828C471.568 34.684 470.164 36.808 468.724 38.5L465.592 35.836C468.904 32.2 471.28 27.7 472.792 22.84L476.5 23.884C475.996 25.396 475.384 26.98 474.736 28.528H481.288V21.328H485.392V28.528H497.956V32.344H485.392V39.04L496.336 39.004V42.784H485.392V50.236H499.72V54.016Z" fill="#111111"/>
<rect x="947" y="15" width="90" height="46" fill="white"/>
<path d="M984.728 54.448H982.568C980.372 54.448 979.544 53.872 979.544 51.82V43.324H977.672C977.276 48.976 975.224 52.576 970.292 55.348L967.844 52C972.164 49.912 973.712 47.392 974 43.324H970.616V22.372H987.5V43.324H983.252V49.84C983.252 50.704 983.288 50.848 984.008 50.848H984.548C985.52 50.848 985.808 50.632 985.88 47.212V45.628L989.228 47.464C988.868 53.62 987.896 54.448 984.728 54.448ZM969.464 48.796L966.764 52.144C965.072 50.02 963.488 46.852 962.516 43.612C961.616 48.112 960.032 52.396 957.8 55.348L955.1 51.928C958.016 48.724 959.528 44.404 960.248 40.12H955.46V36.52H960.68C960.752 35.26 960.788 34.036 960.788 32.884V30.688H956.036V27.16H960.788V21.292H964.496V27.16H969.212V30.688H964.496V32.884C964.496 34.108 964.424 35.332 964.316 36.52H969.68V40.12H964.172C965.36 43.936 967.232 46.744 969.464 48.796ZM983.792 40.012V36.952H974.324V40.012H983.792ZM983.792 34.108V31.3H974.324V34.108H983.792ZM983.792 28.456V25.72H974.324V28.456H983.792ZM1029.08 51.712L1026.85 55.276C1022.49 54.196 1019.36 51.604 1017.52 47.752C1015.8 51.46 1012.74 54.088 1007.7 55.348L1005.54 51.676C1009.57 50.992 1012.2 49.696 1013.74 47.428H1006.47V44.188H1015.15C1015.29 43.504 1015.44 42.748 1015.51 41.92H1008.27V29.284H1011.8V27.16H1006.94V23.812H1011.8V21.292H1015.47V23.812H1019.76V21.292H1023.46V23.812H1028.32V27.16H1023.46V29.284H1027.14V41.92H1019.36C1019.25 42.712 1019.14 43.468 1018.96 44.188H1028.43V47.428H1021.16C1022.71 49.84 1025.16 50.992 1029.08 51.712ZM1003.38 55.312H999.812V36.412C999.02 40.3 998.048 43.612 996.572 46.42L994.808 41.416C996.536 38.68 998.12 35.296 999.38 31.12H995.78V27.592H999.812V21.292H1003.38V27.592H1006.72V31.12H1003.66C1004.82 33.604 1006.08 35.512 1007.44 37.132L1005.82 41.2C1004.78 39.112 1003.99 36.88 1003.38 34.504V55.312ZM1023.46 39.112V36.844H1011.94V39.112H1023.46ZM1023.46 34.36V32.128H1011.94V34.36H1023.46ZM1019.76 29.284V27.16H1015.47V29.284H1019.76Z" fill="#111111"/>
<rect x="418" y="69" width="90" height="46" fill="white"/>
<path d="M460.084 106.144L458.536 109.348C451.768 107.98 446.98 105.604 443.632 101.356H439.204V105.316C441.688 104.956 444.028 104.524 445.576 104.128V107.188C441.544 108.16 437.152 108.844 432.688 109.276L432.004 106.072C433.048 106.036 434.308 105.928 435.604 105.784V101.356H432.148C431.788 104.164 430.96 107.008 429.412 109.348L426.064 107.116C428.368 104.02 428.8 100.06 428.8 95.776V90.808H458.104V93.436H432.436L432.4 95.956C432.4 96.964 432.4 97.972 432.364 98.836H458.752V101.356H454.684L456.988 102.688C456.16 103.444 454.936 104.236 453.676 104.848C455.548 105.424 457.672 105.856 460.084 106.144ZM459.292 88.684H455.764V83.428H444.964V90.052H441.4V83.428H430.636V88.684H427.144V80.656H441.4V79.144H428.44V76.336H457.96V79.144H444.964V80.656H459.292V88.684ZM456.448 97.252H434.524V94.984H456.448V97.252ZM454.324 86.524L446.44 86.56V84.652H454.324V86.524ZM439.924 86.524L432.112 86.56V84.652H439.924V86.524ZM454.324 89.548H446.44V87.676H454.324V89.548ZM439.924 89.548H432.112V87.676H439.924V89.548ZM453.604 101.356H447.592C448.492 102.256 449.5 102.976 450.652 103.588C451.804 103.048 452.848 102.22 453.604 101.356ZM498.172 97.252H491.872V103.48C491.872 107.764 491.62 109.06 485.968 109.24L484.78 105.388H485.464C487.984 105.388 488.236 105.136 488.236 103.444V97.252H482.044V82.78H486.976C487.336 81.988 487.696 81.052 487.948 80.26H479.992V86.38C479.992 95.452 479.74 103.156 476.824 109.276L473.404 106.612C475.852 101.716 476.176 94.84 476.176 86.38V76.768H499.504V80.26H491.8C491.584 81.088 491.26 81.988 490.936 82.78H498.172V97.252ZM469.156 108.304L465.88 105.928C468.472 102.364 470.416 97.648 471.604 93.508L474.7 95.596C473.548 100.096 471.46 104.884 469.156 108.304ZM482.368 107.98L479.38 105.64C481.036 103.624 482.476 100.708 483.196 98.62L486.472 100.096C485.572 102.652 484.024 106 482.368 107.98ZM475.6 80.188L473.152 83.356C471.316 81.7 468.724 79.792 466.924 78.568L469.372 75.508C471.352 76.732 474.412 79.108 475.6 80.188ZM474.16 88.216L471.856 91.564C469.912 89.836 467.536 88.144 465.844 86.992L468.076 83.788C470.02 84.904 472.468 86.704 474.16 88.216ZM500.008 105.46L496.984 107.728C495.832 105.352 494.212 102.292 492.916 100.384L495.868 98.44C497.092 100.276 498.964 103.48 500.008 105.46ZM494.68 94.192V91.312H485.536V94.192H494.68ZM494.68 88.504V85.84H485.536V88.504H494.68Z" fill="#111111"/>
<rect x="947" y="69" width="90" height="46" fill="white"/>
<path d="M989.3 103.876L987.284 107.512C983.792 105.352 980.768 102.472 978.572 99.052V109.276H974.936L974.972 99.196C972.848 102.688 969.608 105.604 966.152 107.476L964.1 103.804C968.132 102.148 971.444 99.772 974.036 96.568H965.756V93.22H974.936V89.44H978.392C977.96 89.044 977.636 88.432 977.636 87.568V81.448H981.236V85.984C981.236 86.632 981.632 86.884 982.244 86.884H983.9C985.304 86.884 985.448 86.308 985.7 83.752L989.156 85.228C988.328 89.656 987.392 90.196 984.656 90.196H981.092C980.192 90.196 979.256 90.052 978.572 89.548V93.22H988.148V96.568H979.436C982.028 99.7 985.448 102.112 989.3 103.876ZM988.148 83.608L984.44 83.644V79.828H969.32V83.824H965.648V76.516H988.148V83.608ZM958.628 108.016L955.28 105.64C957.8 102.688 959.996 97.9 961.508 93.508L964.712 95.668C963.524 99.304 961.256 104.704 958.628 108.016ZM967.016 91.6L964.712 87.964C969.572 86.92 971.768 84.904 972.56 81.016L976.016 82.168C974.864 87.46 971.408 90.052 967.016 91.6ZM965.252 80.188L962.66 83.284C961.184 81.988 958.484 79.9 956.432 78.532L958.88 75.508C961.04 76.804 963.884 78.964 965.252 80.188ZM963.92 88.18L961.544 91.492C960.068 90.268 957.224 88.216 955.208 87.136L957.44 83.932C959.636 85.12 962.408 86.92 963.92 88.18ZM1023.14 102.292L1022.82 106.756C1019.47 107.548 1015.9 107.836 1012.95 107.836C1001.72 107.836 998.3 103.192 998.3 99.592C998.3 94.156 1005.21 92.14 1009.53 92.032C1010.11 92.032 1010.65 91.996 1011.19 91.996C1013.78 91.996 1016.34 92.176 1018.86 92.932C1016.88 90.772 1014.9 88.468 1012.99 85.876C1008.09 86.308 1003.12 86.56 998.588 86.56H997.472L997.04 82.6C998.228 82.636 999.38 82.636 1000.57 82.636C1004.02 82.636 1007.52 82.492 1010.83 82.204C1009.82 80.548 1008.81 78.784 1007.8 76.876L1011.76 76.048C1012.74 77.992 1013.82 79.9 1014.97 81.772C1018.93 81.304 1022.46 80.728 1025.12 80.08L1025.84 84.04C1023.18 84.58 1020.19 85.048 1017.06 85.408C1019 88 1022.2 91.744 1025.95 95.2L1022.78 98.296C1019.79 95.92 1015.29 95.596 1011.4 95.596H1009.96C1005.68 95.632 1002.48 97.252 1002.48 99.34C1002.48 103.228 1008.96 103.804 1012.38 103.804C1015.94 103.804 1019.68 103.156 1023.14 102.292Z" fill="#111111"/>
<path d="M1513.56 149.465C1513.56 152.99 1510.68 155.87 1507.16 155.87C1503.63 155.87 1500.75 152.99 1500.75 149.465C1500.75 145.94 1503.63 143.06 1507.16 143.06C1510.68 143.06 1513.56 145.94 1513.56 149.465ZM1512.8 149.465C1512.8 146.36 1510.26 143.825 1507.16 143.825C1504.05 143.825 1501.52 146.36 1501.52 149.465C1501.52 152.57 1504.05 155.105 1507.16 155.105C1510.26 155.105 1512.8 152.57 1512.8 149.465ZM1509.96 151.88V153.335C1509.29 153.59 1508.46 153.755 1507.68 153.755C1505.07 153.755 1503.18 151.985 1503.18 149.48C1503.18 146.99 1505.07 145.19 1507.68 145.19C1508.34 145.19 1509.17 145.31 1509.77 145.55V146.96C1509.09 146.54 1508.3 146.345 1507.68 146.345C1505.85 146.345 1504.52 147.665 1504.52 149.48C1504.52 151.295 1505.85 152.6 1507.68 152.6C1508.43 152.6 1509.3 152.345 1509.96 151.88ZM1527.06 155.57H1525.07L1519.46 149.045V155.57H1517.96V143.3H1519.46V148.58L1524.96 143.3H1526.94L1521.02 148.835L1527.06 155.57ZM1536.82 155.57H1535.44V155.225C1534.55 155.705 1533.7 155.78 1533.16 155.78C1530.97 155.78 1529.8 154.685 1529.8 153.23C1529.8 151.91 1530.83 150.395 1533.73 150.395C1534.28 150.395 1534.94 150.44 1535.44 150.56V149.87C1535.44 148.835 1534.49 148.4 1533.25 148.4C1532.5 148.4 1531.64 148.55 1530.8 148.82V147.56C1531.57 147.32 1532.44 147.17 1533.26 147.17C1535.14 147.17 1536.82 147.89 1536.82 149.675V155.57ZM1535.44 154.01V151.79C1534.9 151.61 1534.22 151.565 1533.74 151.565C1531.4 151.565 1531.18 152.675 1531.18 153.125C1531.18 154.055 1531.94 154.625 1533.37 154.625C1534.27 154.625 1534.96 154.325 1535.44 154.01ZM1547.8 153.86V155.405C1547.03 155.735 1546.24 155.825 1545.44 155.825C1542.77 155.825 1540.81 153.995 1540.81 151.49C1540.81 148.985 1542.77 147.17 1545.44 147.17C1546.1 147.17 1546.85 147.245 1547.59 147.5V149.03C1546.85 148.49 1546.03 148.415 1545.43 148.415C1543.6 148.415 1542.26 149.705 1542.26 151.49C1542.26 153.275 1543.6 154.565 1545.43 154.565C1546.16 154.565 1546.99 154.46 1547.8 153.86ZM1555.48 155.75H1555.24C1553.63 155.75 1552.34 155.135 1552.34 153.365V148.685H1550.89V147.425H1552.34V144.68H1553.75V147.425H1555.57V148.685H1553.75V153.02C1553.75 154.355 1554.59 154.475 1555.48 154.505V155.75ZM1566.06 155.57H1564.65V155.18C1564.12 155.6 1563.4 155.87 1562.58 155.87C1560.28 155.87 1559.43 154.49 1559.43 153.11V147.425H1560.85V152.87C1560.85 153.935 1561.45 154.685 1562.71 154.685C1563.6 154.685 1564.42 154.175 1564.65 153.335V147.425H1566.06V155.57ZM1572.22 155.57H1570.75V147.425H1572.22V155.57ZM1572.55 143.945C1572.55 144.5 1572.07 144.935 1571.48 144.935C1570.88 144.935 1570.42 144.5 1570.42 143.945C1570.42 143.39 1570.88 142.925 1571.48 142.925C1572.07 142.925 1572.55 143.39 1572.55 143.945ZM1579.01 155.57H1577.6V148.685H1576.14V147.425H1577.6V145.34C1577.6 143.45 1578.89 142.565 1580.57 142.52V143.735C1579.8 143.78 1579.01 144.155 1579.01 145.46V147.425H1580.61V148.685H1579.01V155.57Z" fill="white" fill-opacity="0.3"/>
</svg>
