<svg width="110" height="110" viewBox="0 0 110 110" fill="none" xmlns="http://www.w3.org/2000/svg">
<rect x="2.5" y="2.5" width="105" height="105" rx="6.5" fill="#272727" stroke="#111111" stroke-width="5"/>
<path d="M78.8447 70.78C78.8447 86.51 67.6247 93.99 54.9746 93.99C42.3246 93.99 31.1046 86.51 31.1046 70.78V39.43C31.1046 23.26 42.3246 16.11 54.9746 16.11C67.6247 16.11 78.8447 23.26 78.8447 39.32V70.78ZM66.0847 40.09C66.0847 31.95 61.7946 27.22 54.9746 27.22C48.0446 27.22 43.7546 31.95 43.7546 40.09V70.01C43.7546 78.15 48.0446 82.88 54.9746 82.88C61.7946 82.88 66.0847 78.15 66.0847 70.01V40.09Z" fill="white"/>
</svg>
