<svg width="110" height="110" viewBox="0 0 110 110" fill="none" xmlns="http://www.w3.org/2000/svg">
<rect x="2.5" y="2.5" width="105" height="105" rx="6.5" fill="#2755FB" stroke="#142B80" stroke-width="5"/>
<path d="M47.1646 59.34V48.34H52.4446C60.3646 48.34 64.6546 44.16 64.6546 37.01C64.6546 31.51 60.3646 27 53.8747 27C47.7146 27 43.6446 31.07 43.0946 36.35H31.4346C31.7646 24.14 42.1046 16.11 54.3147 16.11C67.6247 16.11 77.3047 25.24 77.3047 36.68C77.3047 44.93 72.4647 50.65 66.5247 53.62C73.4547 56.7 78.4047 62.64 78.4047 71.99C78.4047 83.98 69.8247 93.99 55.1946 93.99C39.7946 93.99 31.1046 85.19 30.4446 73.2H42.1046C42.9846 78.7 46.8346 82.88 54.6447 82.88C61.2447 82.88 65.7547 78.04 65.7547 71.66C65.7547 63.96 61.2447 59.34 52.4446 59.34H47.1646Z" fill="white"/>
</svg>
