<svg width="110" height="110" viewBox="0 0 110 110" fill="none" xmlns="http://www.w3.org/2000/svg">
<rect x="2.5" y="2.5" width="105" height="105" rx="6.5" fill="#FFA11C" stroke="#7D4F0E" stroke-width="5"/>
<path d="M36.9746 52.63C32.4646 52.63 29.6046 55.05 27.7346 58.24H16.1846V17.1H57.3246V29.09H28.6146V45.15C30.9247 42.84 34.4446 40.75 40.2746 40.75C52.9247 40.75 60.2947 50.54 60.2947 68.14C60.2947 84.75 52.3747 93.99 37.1946 93.99C24.8746 93.99 15.1946 86.29 14.0946 74.19H26.6346C27.9546 79.69 31.4746 82.88 36.9746 82.88C43.4647 82.88 47.5347 78.59 47.5347 68.58C47.5347 58.13 44.4547 52.63 36.9746 52.63Z" fill="#111111"/>
<rect x="59" y="35" width="39" height="9" fill="#111111"/>
</svg>
