<svg width="110" height="110" viewBox="0 0 110 110" fill="none" xmlns="http://www.w3.org/2000/svg">
<rect x="2.5" y="2.5" width="105" height="105" rx="6.5" fill="#970013" stroke="#4D000A" stroke-width="5"/>
<path d="M48.5247 17.1L33.1246 49.33C35.3246 48.23 37.9646 47.9 40.3847 47.9C52.2646 47.9 60.8447 57.47 60.8447 70.34C60.8447 85.63 50.6147 93.99 36.9746 93.99C23.4446 93.99 12.9946 85.74 12.9946 70.56C12.9946 64.95 15.7446 58.13 19.1546 50.65L34.6646 17.1H48.5247ZM25.7546 70.67C25.7546 78.04 29.9346 82.88 36.9746 82.88C43.9046 82.88 48.0847 78.04 48.0847 70.67C48.0847 63.41 43.9046 58.46 36.9746 58.46C29.9346 58.46 25.7546 63.41 25.7546 70.67Z" fill="white"/>
<path d="M59.077 44.2V35H73.777V20.1H83.077V35H97.977V44.2H83.077V59H73.777V44.2H59.077Z" fill="white"/>
</svg>
