<svg width="400" height="130" viewBox="0 0 400 130" fill="none" xmlns="http://www.w3.org/2000/svg">
<rect width="400" height="130" fill="#272727"/>
<path d="M84.512 83.192L82.448 87.464C73.424 85.64 67.04 82.472 62.576 76.808H56.672V82.088C59.984 81.608 63.104 81.032 65.168 80.504V84.584C59.792 85.88 53.936 86.792 47.984 87.368L47.072 83.096C48.464 83.048 50.144 82.904 51.872 82.712V76.808H47.264C46.784 80.552 45.68 84.344 43.616 87.464L39.152 84.488C42.224 80.36 42.8 75.08 42.8 69.368V62.744H81.872V66.248H47.648L47.6 69.608C47.6 70.952 47.6 72.296 47.552 73.448H82.736V76.808H77.312L80.384 78.584C79.28 79.592 77.648 80.648 75.968 81.464C78.464 82.232 81.296 82.808 84.512 83.192ZM83.456 59.912H78.752V52.904H64.352V61.736H59.6V52.904H45.248V59.912H40.592V49.208H59.6V47.192H42.32V43.448H81.68V47.192H64.352V49.208H83.456V59.912ZM79.664 71.336H50.432V68.312H79.664V71.336ZM76.832 57.032L66.32 57.08V54.536H76.832V57.032ZM57.632 57.032L47.216 57.08V54.536H57.632V57.032ZM76.832 61.064H66.32V58.568H76.832V61.064ZM57.632 61.064H47.216V58.568H57.632V61.064ZM75.872 76.808H67.856C69.056 78.008 70.4 78.968 71.936 79.784C73.472 79.064 74.864 77.96 75.872 76.808ZM138.752 58.664H131.408V65.96H110.192V58.664H103.184C103.136 69.512 102.32 78.536 98.864 86.408L94.256 83.624C97.616 76.328 98.192 67.832 98.192 57.416V45.416H115.712V42.056H121.136V45.416H138.752V50.024H103.184V54.248H110.192V51.224H115.424V54.248H126.224V51.224H131.408V54.248H138.752V58.664ZM139.904 81.944L137.216 86.984C131.696 86.264 126.608 85.016 121.76 82.76C116.864 85.064 111.104 86.552 104.48 87.176L101.744 82.328C106.496 82.136 111.872 81.464 116.72 79.928C113.888 78.008 111.008 75.608 108.512 72.584H104.24V68.216H134.96V72.152C132.752 74.984 129.872 77.672 126.608 79.88C130.592 81.128 135.104 81.8 139.904 81.944ZM128.384 72.584H114.704C116.432 74.6 118.832 76.52 121.568 77.96C124.256 76.568 126.608 74.84 128.384 72.584ZM126.224 62.024V58.664H115.424V62.024H126.224ZM195.008 61.64H166.064V59.576L163.856 60.872C163.424 58.472 162.368 54.488 161.36 51.32V87.416H156.416V42.056H161.36V50.888L164.192 49.448C165.152 51.8 166.16 55.064 166.832 57.56H177.728V54.968H168.128V51.512H177.728V49.016H167.024V45.128H177.728V42.104H182.912V45.128H193.952V49.016H182.912V51.512H192.656V54.968H182.912V57.56H195.008V61.64ZM182.336 87.368L180.512 83.048C181.328 83.048 182.192 83.096 183.008 83.096C185.312 83.096 187.28 82.808 187.28 80.936V79.208H173.216V87.416H168.176V63.8H192.368V79.928C192.368 86.408 190.16 87.176 182.336 87.368ZM153.584 68.072L149.744 65.576C150.992 60.632 151.28 55.16 151.328 49.256L155.024 49.976C154.976 56.312 154.64 62.6 153.584 68.072ZM187.28 75.896V73.256H173.216V75.896H187.28ZM187.28 69.944L187.328 67.448H173.216V69.944H187.28ZM250.544 83.096L247.712 87.368C245.84 85.976 243.824 84.2 242.336 82.376C240.608 84.536 238.544 86.216 236.768 87.464L233.936 83.336V87.416H229.184V43.496H249.296V48.008C249.296 57.128 248.72 58.232 239.552 58.28L237.728 53.72H239.792C244.304 53.72 244.4 53.528 244.4 50.072V48.248H233.936V60.776H249.44C249.344 66.008 248 73.88 245.024 79.064C246.704 80.888 248.672 82.088 250.544 83.096ZM219.056 87.416H214.112V79.256H206.288V74.6H214.112V69.704H205.472V65.096H210.08C209.552 63.176 208.736 60.776 208.16 59.144H204.896V54.536H214.112V50.216H206.48V45.704H214.112V42.056H219.056V45.704H226.688V50.216H219.056V54.536H227.984V59.144H224.912C224.528 60.872 223.856 63.224 223.136 65.096H227.84V69.704H219.056V74.6H227.072V79.256H219.056V87.416ZM235.376 65.384H233.936V83.144C235.616 82.328 237.728 81.224 239.744 79.064C237.632 75.224 235.952 70.808 235.376 65.384ZM214.496 65.096H218.48C219.296 63.176 219.968 60.824 220.352 59.144H212.816C213.344 60.824 214.016 63.224 214.496 65.096ZM244.736 65.384H239.696C240.032 68.888 240.8 72.488 242.288 75.752C243.728 72.536 244.592 68.504 244.736 65.384ZM304.736 79.16L302.336 84.44C299.744 81.896 297.2 79.64 294.56 77.96C293.792 83.96 289.424 86.072 283.856 86.072C277.52 86.072 273.248 82.76 273.248 78.152C273.248 72.296 279.728 70.088 284.336 70.088C286.064 70.088 287.696 70.28 289.376 70.664C289.28 67.016 288.992 62.792 288.848 59.096H294.32C294.464 63.416 294.608 68.024 294.656 72.488C298.16 74.12 301.568 76.424 304.736 79.16ZM266.624 78.2L261.584 76.136C266.528 69.224 270.464 61.304 273.344 54.2H263.552L263.6 49.352H274.784C275.648 47.048 276.272 44.84 276.848 42.92L282.416 43.688C281.84 45.464 281.216 47.384 280.496 49.352H287.36V54.2H279.008C275.792 62.024 271.616 70.664 266.624 78.2ZM305.456 51.56L304.544 56.888C301.376 55.928 297.392 55.304 293.936 55.304C292.496 55.304 291.152 55.448 290 55.688L289.568 50.744C291.104 50.504 293.12 50.36 295.232 50.36C298.688 50.36 302.528 50.696 305.456 51.56ZM289.472 75.464C287.888 74.936 286.304 74.648 284.624 74.648C283.04 74.648 278.144 74.936 278.144 77.912C278.144 79.976 280.784 81.272 283.856 81.272C288.08 81.272 289.328 79.352 289.472 75.464ZM354.656 65.624L359.168 70.184C353.792 79.832 345.44 86.168 334.736 86.168C328.352 86.168 322.736 83.288 322.736 73.496C322.736 63.752 322.928 53.96 322.928 44.216L328.976 44.408C328.496 53.816 328.256 63.272 328.256 72.68C328.256 78.248 330.608 80.6 335.12 80.6C346.256 80.6 352.736 69.704 354.656 65.624Z" fill="white"/>
</svg>
