<svg width="400" height="130" viewBox="0 0 400 130" fill="none" xmlns="http://www.w3.org/2000/svg">
<rect width="400" height="130" fill="#2755FB"/>
<path d="M87.72 83.64H83.68V80.44C79.76 81.12 73.4 81.72 70.08 81.92L69.36 78.24C70.4 78.24 71.64 78.24 73 78.16V64.68H69.72V61.4H106.28V64.68H87.72V83.64ZM102.64 59.48H73.32V47.04H102.64V59.48ZM106.8 79.84L104.96 83.64C102.32 82.68 99.84 81.36 97.72 79.68C95.56 81.32 93.04 82.52 90.2 83.44L88.44 79.52C90.8 79.16 92.96 78.44 94.8 77.36C93.2 75.52 91.84 73.28 90.64 70.4L88.72 70.44V67H104.56V70C103.52 72.92 102.12 75.32 100.36 77.24C102.24 78.36 104.44 79.16 106.8 79.84ZM98.08 56.8V54.56H77.92V56.8H98.08ZM98.08 51.96V49.88H77.92V51.96H98.08ZM83.68 77.36V75H77.04V77.96C79.36 77.84 81.76 77.6 83.68 77.36ZM83.68 72.4V69.76H77.04V72.4H83.68ZM100.56 70.4H94.44C95.24 72.32 96.32 73.92 97.56 75.2C98.84 73.92 99.84 72.36 100.56 70.4ZM83.68 67.12V64.68H77.04V67.12H83.68ZM153 79.56L150.32 83.6C142.68 79.48 137.52 73.72 134.28 65.72C131.48 73.92 125.48 80.48 118 83.72L115 79.64C124.72 76.08 130.2 68.4 131.56 60.16H116.08V55.84H131.92V45.88H136.2V55.84H151.92V60.16H136.64C138.92 68.84 145.32 76 153 79.56ZM198.76 80.16L197.04 83.72C189.52 82.2 184.2 79.56 180.48 74.84H175.56V79.24C178.32 78.84 180.92 78.36 182.64 77.92V81.32C178.16 82.4 173.28 83.16 168.32 83.64L167.56 80.08C168.72 80.04 170.12 79.92 171.56 79.76V74.84H167.72C167.32 77.96 166.4 81.12 164.68 83.72L160.96 81.24C163.52 77.8 164 73.4 164 68.64V63.12H196.56V66.04H168.04L168 68.84C168 69.96 168 71.08 167.96 72.04H197.28V74.84H192.76L195.32 76.32C194.4 77.16 193.04 78.04 191.64 78.72C193.72 79.36 196.08 79.84 198.76 80.16ZM197.88 60.76H193.96V54.92H181.96V62.28H178V54.92H166.04V60.76H162.16V51.84H178V50.16H163.6V47.04H196.4V50.16H181.96V51.84H197.88V60.76ZM194.72 70.28H170.36V67.76H194.72V70.28ZM192.36 58.36L183.6 58.4V56.28H192.36V58.36ZM176.36 58.36L167.68 58.4V56.28H176.36V58.36ZM192.36 61.72H183.6V59.64H192.36V61.72ZM176.36 61.72H167.68V59.64H176.36V61.72ZM191.56 74.84H184.88C185.88 75.84 187 76.64 188.28 77.32C189.56 76.72 190.72 75.8 191.56 74.84ZM243.96 59.72H237.84V65.8H220.16V59.72H214.32C214.28 68.76 213.6 76.28 210.72 82.84L206.88 80.52C209.68 74.44 210.16 67.36 210.16 58.68V48.68H224.76V45.88H229.28V48.68H243.96V52.52H214.32V56.04H220.16V53.52H224.52V56.04H233.52V53.52H237.84V56.04H243.96V59.72ZM244.92 79.12L242.68 83.32C238.08 82.72 233.84 81.68 229.8 79.8C225.72 81.72 220.92 82.96 215.4 83.48L213.12 79.44C217.08 79.28 221.56 78.72 225.6 77.44C223.24 75.84 220.84 73.84 218.76 71.32H215.2V67.68H240.8V70.96C238.96 73.32 236.56 75.56 233.84 77.4C237.16 78.44 240.92 79 244.92 79.12ZM235.32 71.32H223.92C225.36 73 227.36 74.6 229.64 75.8C231.88 74.64 233.84 73.2 235.32 71.32ZM233.52 62.52V59.72H224.52V62.52H233.52Z" fill="white"/>
<path d="M290.32 69.832V57.032H296.464C305.68 57.032 310.672 52.168 310.672 43.848C310.672 37.448 305.68 32.2 298.128 32.2C290.96 32.2 286.224 36.936 285.584 43.08H272.016C272.4 28.872 284.432 19.528 298.64 19.528C314.128 19.528 325.392 30.152 325.392 43.464C325.392 53.064 319.76 59.72 312.848 63.176C320.912 66.76 326.672 73.672 326.672 84.552C326.672 98.504 316.688 110.152 299.664 110.152C281.744 110.152 271.632 99.912 270.864 85.96H284.432C285.456 92.36 289.936 97.224 299.024 97.224C306.704 97.224 311.952 91.592 311.952 84.168C311.952 75.208 306.704 69.832 296.464 69.832H290.32Z" fill="white"/>
</svg>
