<svg width="400" height="130" viewBox="0 0 400 130" fill="none" xmlns="http://www.w3.org/2000/svg">
<rect width="400" height="130" fill="#FFE3B8"/>
<path d="M86.72 83.64H82.68V80.44C78.76 81.12 72.4 81.72 69.08 81.92L68.36 78.24C69.4 78.24 70.64 78.24 72 78.16V64.68H68.72V61.4H105.28V64.68H86.72V83.64ZM101.64 59.48H72.32V47.04H101.64V59.48ZM105.8 79.84L103.96 83.64C101.32 82.68 98.84 81.36 96.72 79.68C94.56 81.32 92.04 82.52 89.2 83.44L87.44 79.52C89.8 79.16 91.96 78.44 93.8 77.36C92.2 75.52 90.84 73.28 89.64 70.4L87.72 70.44V67H103.56V70C102.52 72.92 101.12 75.32 99.36 77.24C101.24 78.36 103.44 79.16 105.8 79.84ZM97.08 56.8V54.56H76.92V56.8H97.08ZM97.08 51.96V49.88H76.92V51.96H97.08ZM82.68 77.36V75H76.04V77.96C78.36 77.84 80.76 77.6 82.68 77.36ZM82.68 72.4V69.76H76.04V72.4H82.68ZM99.56 70.4H93.44C94.24 72.32 95.32 73.92 96.56 75.2C97.84 73.92 98.84 72.36 99.56 70.4ZM82.68 67.12V64.68H76.04V67.12H82.68ZM152 79.56L149.32 83.6C141.68 79.48 136.52 73.72 133.28 65.72C130.48 73.92 124.48 80.48 117 83.72L114 79.64C123.72 76.08 129.2 68.4 130.56 60.16H115.08V55.84H130.92V45.88H135.2V55.84H150.92V60.16H135.64C137.92 68.84 144.32 76 152 79.56ZM197.76 80.16L196.04 83.72C188.52 82.2 183.2 79.56 179.48 74.84H174.56V79.24C177.32 78.84 179.92 78.36 181.64 77.92V81.32C177.16 82.4 172.28 83.16 167.32 83.64L166.56 80.08C167.72 80.04 169.12 79.92 170.56 79.76V74.84H166.72C166.32 77.96 165.4 81.12 163.68 83.72L159.96 81.24C162.52 77.8 163 73.4 163 68.64V63.12H195.56V66.04H167.04L167 68.84C167 69.96 167 71.08 166.96 72.04H196.28V74.84H191.76L194.32 76.32C193.4 77.16 192.04 78.04 190.64 78.72C192.72 79.36 195.08 79.84 197.76 80.16ZM196.88 60.76H192.96V54.92H180.96V62.28H177V54.92H165.04V60.76H161.16V51.84H177V50.16H162.6V47.04H195.4V50.16H180.96V51.84H196.88V60.76ZM193.72 70.28H169.36V67.76H193.72V70.28ZM191.36 58.36L182.6 58.4V56.28H191.36V58.36ZM175.36 58.36L166.68 58.4V56.28H175.36V58.36ZM191.36 61.72H182.6V59.64H191.36V61.72ZM175.36 61.72H166.68V59.64H175.36V61.72ZM190.56 74.84H183.88C184.88 75.84 186 76.64 187.28 77.32C188.56 76.72 189.72 75.8 190.56 74.84ZM242.96 59.72H236.84V65.8H219.16V59.72H213.32C213.28 68.76 212.6 76.28 209.72 82.84L205.88 80.52C208.68 74.44 209.16 67.36 209.16 58.68V48.68H223.76V45.88H228.28V48.68H242.96V52.52H213.32V56.04H219.16V53.52H223.52V56.04H232.52V53.52H236.84V56.04H242.96V59.72ZM243.92 79.12L241.68 83.32C237.08 82.72 232.84 81.68 228.8 79.8C224.72 81.72 219.92 82.96 214.4 83.48L212.12 79.44C216.08 79.28 220.56 78.72 224.6 77.44C222.24 75.84 219.84 73.84 217.76 71.32H214.2V67.68H239.8V70.96C237.96 73.32 235.56 75.56 232.84 77.4C236.16 78.44 239.92 79 243.92 79.12ZM234.32 71.32H222.92C224.36 73 226.36 74.6 228.64 75.8C230.88 74.64 232.84 73.2 234.32 71.32ZM232.52 62.52V59.72H223.52V62.52H232.52Z" fill="#111111"/>
<path d="M297.384 20.68H313.128L284.84 82.76H305.576V58.696H320.424V82.76H328.488V95.688H320.424V109H305.576V95.688H266.792V85.192L297.384 20.68Z" fill="#111111"/>
</svg>
