<svg width="400" height="130" viewBox="0 0 400 130" fill="none" xmlns="http://www.w3.org/2000/svg">
<rect width="400" height="130" fill="#FF2600"/>
<path d="M51.72 83.64H47.68V80.44C43.76 81.12 37.4 81.72 34.08 81.92L33.36 78.24C34.4 78.24 35.64 78.24 37 78.16V64.68H33.72V61.4H70.28V64.68H51.72V83.64ZM66.64 59.48H37.32V47.04H66.64V59.48ZM70.8 79.84L68.96 83.64C66.32 82.68 63.84 81.36 61.72 79.68C59.56 81.32 57.04 82.52 54.2 83.44L52.44 79.52C54.8 79.16 56.96 78.44 58.8 77.36C57.2 75.52 55.84 73.28 54.64 70.4L52.72 70.44V67H68.56V70C67.52 72.92 66.12 75.32 64.36 77.24C66.24 78.36 68.44 79.16 70.8 79.84ZM62.08 56.8V54.56H41.92V56.8H62.08ZM62.08 51.96V49.88H41.92V51.96H62.08ZM47.68 77.36V75H41.04V77.96C43.36 77.84 45.76 77.6 47.68 77.36ZM47.68 72.4V69.76H41.04V72.4H47.68ZM64.56 70.4H58.44C59.24 72.32 60.32 73.92 61.56 75.2C62.84 73.92 63.84 72.36 64.56 70.4ZM47.68 67.12V64.68H41.04V67.12H47.68ZM117 79.56L114.32 83.6C106.68 79.48 101.52 73.72 98.28 65.72C95.48 73.92 89.48 80.48 82 83.72L79 79.64C88.72 76.08 94.2 68.4 95.56 60.16H80.08V55.84H95.92V45.88H100.2V55.84H115.92V60.16H100.64C102.92 68.84 109.32 76 117 79.56ZM162.76 80.16L161.04 83.72C153.52 82.2 148.2 79.56 144.48 74.84H139.56V79.24C142.32 78.84 144.92 78.36 146.64 77.92V81.32C142.16 82.4 137.28 83.16 132.32 83.64L131.56 80.08C132.72 80.04 134.12 79.92 135.56 79.76V74.84H131.72C131.32 77.96 130.4 81.12 128.68 83.72L124.96 81.24C127.52 77.8 128 73.4 128 68.64V63.12H160.56V66.04H132.04L132 68.84C132 69.96 132 71.08 131.96 72.04H161.28V74.84H156.76L159.32 76.32C158.4 77.16 157.04 78.04 155.64 78.72C157.72 79.36 160.08 79.84 162.76 80.16ZM161.88 60.76H157.96V54.92H145.96V62.28H142V54.92H130.04V60.76H126.16V51.84H142V50.16H127.6V47.04H160.4V50.16H145.96V51.84H161.88V60.76ZM158.72 70.28H134.36V67.76H158.72V70.28ZM156.36 58.36L147.6 58.4V56.28H156.36V58.36ZM140.36 58.36L131.68 58.4V56.28H140.36V58.36ZM156.36 61.72H147.6V59.64H156.36V61.72ZM140.36 61.72H131.68V59.64H140.36V61.72ZM155.56 74.84H148.88C149.88 75.84 151 76.64 152.28 77.32C153.56 76.72 154.72 75.8 155.56 74.84ZM207.96 59.72H201.84V65.8H184.16V59.72H178.32C178.28 68.76 177.6 76.28 174.72 82.84L170.88 80.52C173.68 74.44 174.16 67.36 174.16 58.68V48.68H188.76V45.88H193.28V48.68H207.96V52.52H178.32V56.04H184.16V53.52H188.52V56.04H197.52V53.52H201.84V56.04H207.96V59.72ZM208.92 79.12L206.68 83.32C202.08 82.72 197.84 81.68 193.8 79.8C189.72 81.72 184.92 82.96 179.4 83.48L177.12 79.44C181.08 79.28 185.56 78.72 189.6 77.44C187.24 75.84 184.84 73.84 182.76 71.32H179.2V67.68H204.8V70.96C202.96 73.32 200.56 75.56 197.84 77.4C201.16 78.44 204.92 79 208.92 79.12ZM199.32 71.32H187.92C189.36 73 191.36 74.6 193.64 75.8C195.88 74.64 197.84 73.2 199.32 71.32ZM197.52 62.52V59.72H188.52V62.52H197.52Z" fill="white"/>
<path d="M349.864 94.696H349.224L347.752 87.72C358.504 87.72 359.144 87.144 359.144 77.032V66.664H342.12C344.744 67.88 349.096 70.184 351.592 71.912L347.816 77.032C345.384 75.176 341.288 72.68 338.344 71.208L341.544 66.664H338.408C339.304 62.056 340.456 53.288 340.776 48.616H358.504V42.856H338.472V36.52H365.096V54.824H347.048C346.856 56.36 346.344 59.176 346.152 60.456H365.864V73.256C365.864 90.408 365.096 94.568 349.864 94.696ZM318.376 94.696L316.328 87.72C328.04 87.72 328.36 87.016 328.36 75.304V66.664H311.848C314.856 68.2 318.568 70.248 320.872 71.784L317.288 77.032C314.984 75.368 310.76 72.744 307.816 71.208L310.76 66.664H308.008C308.968 61.544 310.12 53.48 310.44 48.616H327.976V42.856H308.456V36.52H334.568V54.824H316.648C316.456 56.296 316.072 58.92 315.752 60.456H335.08V74.088C335.08 90.856 334.76 94.568 318.376 94.696ZM340.456 88.68L337.256 82.856C342.824 80.68 351.464 75.368 355.944 71.592L358.44 76.84C353.768 80.936 345.832 86.12 340.456 88.68ZM310.056 88.488L306.92 82.792C312.936 80.232 320.296 75.752 325.288 71.336L327.592 76.328C323.048 80.424 316.328 85.352 310.056 88.488Z" fill="white"/>
<path d="M276.848 20.68L258.928 58.184C261.488 56.904 264.56 56.52 267.376 56.52C281.2 56.52 291.184 67.656 291.184 82.632C291.184 100.424 279.28 110.152 263.408 110.152C247.664 110.152 235.504 100.552 235.504 82.888C235.504 76.36 238.704 68.424 242.672 59.72L260.72 20.68H276.848ZM250.352 83.016C250.352 91.592 255.216 97.224 263.408 97.224C271.472 97.224 276.336 91.592 276.336 83.016C276.336 74.568 271.472 68.808 263.408 68.808C255.216 68.808 250.352 74.568 250.352 83.016Z" fill="white"/>
</svg>
