<svg width="202" height="46" viewBox="0 0 202 46" fill="none" xmlns="http://www.w3.org/2000/svg">
<rect width="202" height="46" fill="#FF4B00"/>
<path d="M35.9216 38.584H18.6416V8.632H35.9216V12.304H22.9616V20.692H34.0856V24.364H22.9616V34.912H35.9216V38.584ZM61.7755 38.584H44.4955V8.632H61.7755V12.304H48.8155V20.692H59.9395V24.364H48.8155V34.912H61.7755V38.584ZM97.8894 38.584H92.8494L88.6734 21.844C88.1334 19.612 87.4494 15.364 87.1974 13.78C86.9814 15.328 86.2254 19.684 85.6134 21.988L81.1494 38.584H76.6854L67.7934 8.632H72.5094L77.0454 25.624C77.8734 28.72 78.4854 32.248 78.9894 34.732C79.3854 32.644 80.1054 28.54 80.8614 25.624L85.2894 8.632H89.1054L93.5694 25.588C94.1094 27.712 94.9374 31.852 95.4414 34.696C95.9814 31.996 96.7014 28.216 97.3854 25.624L101.921 8.632H106.637L97.8894 38.584ZM140.626 39.52H135.406C133.354 39.52 131.698 39.304 131.698 35.884V30.484H125.722C124.498 35.236 121.438 38.62 114.238 40.312L112.294 36.64C117.982 35.668 120.682 33.796 121.906 30.484H113.842V26.884H122.626L122.662 26.704C122.77 25.264 122.806 23.824 122.842 22.312H119.782V21.016C117.874 22.24 115.822 23.284 113.626 24.112L111.862 20.512C114.166 19.9 116.326 18.928 118.234 17.74C116.506 16.264 114.454 14.896 112.726 13.924L115.066 10.936C117.154 12.268 119.278 13.888 121.222 15.58C122.986 14.068 124.39 12.448 125.254 10.9H116.758V7.336H130.006C130.726 8.56 131.554 9.748 132.454 10.864C134.254 9.64 135.838 8.092 137.134 6.364L139.87 8.668C138.502 10.216 136.63 11.98 134.758 13.312C135.55 14.068 136.414 14.788 137.386 15.436C139.402 13.924 141.022 12.16 142.354 10.288L145.054 12.664C143.794 14.212 142.21 15.868 140.41 17.272C142.102 18.172 144.01 18.928 146.17 19.54L144.514 23.32C142.606 22.564 140.734 21.7 138.97 20.692V22.312H135.37V26.884H144.226V30.484H135.37V34.804C135.37 35.812 135.946 35.848 136.594 35.848H140.122C141.526 35.848 141.886 35.704 142.282 31.348L145.882 33.184C144.91 39.232 143.866 39.52 140.626 39.52ZM122.914 18.748H135.874C133.066 16.768 130.654 14.464 128.89 11.872C127.378 14.392 125.362 16.696 122.914 18.748ZM131.698 26.884V22.312H126.514C126.514 23.68 126.478 25.012 126.37 26.38C126.37 26.56 126.334 26.74 126.334 26.884H131.698ZM185.734 36.64L183.394 40.168C175.51 37 171.298 31.492 168.562 24.76H167.878C166.762 26.092 165.394 27.352 163.81 28.468V35.812C166.654 35.452 169.426 34.984 171.55 34.444L171.586 38.044C166.87 39.124 159.922 40.024 155.098 40.312L154.378 36.604C156.07 36.568 158.05 36.424 160.102 36.244V30.7C157.726 32.032 155.206 33.112 152.794 33.94L151.318 30.088C156.07 29.044 160.57 26.92 163.63 24.76H152.074V21.232H166.438V18.46H154.846V15.076H166.438V12.52H153.334V8.992H166.438V6.292H170.326V8.992H183.862V12.52H170.326V15.076H182.566V18.46H170.326V21.232H185.122V24.76H172.27C173.242 26.74 174.286 28.468 175.51 29.98C177.526 28.72 179.11 27.28 180.514 25.372L183.754 27.64C182.206 29.296 179.902 31.168 177.814 32.356C179.866 34.12 182.386 35.524 185.734 36.64Z" fill="white"/>
</svg>
