<svg width="110" height="46" viewBox="0 0 110 46" fill="none" xmlns="http://www.w3.org/2000/svg">
<rect width="110" height="46" fill="#005AFF"/>
<path d="M51.544 31.492L49.276 34.624C44.956 33.076 41.176 29.836 39.304 26.092V34.192H35.596V29.332C33.904 30.664 31.744 31.996 29.404 32.896L27.676 29.584C30.844 28.756 33.328 27.532 35.272 25.984H30.052V17.776H48.844V25.984H48.016L50.608 27.712C49.744 28.54 48.412 29.44 47.332 30.016C48.664 30.7 50.104 31.204 51.544 31.492ZM50.968 39.196H33.508C30.16 39.196 27.316 38.404 25.048 35.56C23.932 37.36 22.312 39.016 20.44 40.312L18.136 36.928C19.828 35.848 21.556 34.444 22.708 32.608V23.5H18.604V19.792H26.416V31.852C28.108 34.696 30.232 35.524 33.544 35.524L52.264 35.344L50.968 39.196ZM50.752 16.12H27.928V13.132H37.324V11.224H29.44V8.308H37.324V6.184H41.14V8.308H49.132V11.224H41.14V13.132H50.752V16.12ZM26.416 13.24L23.608 15.688C22.24 13.708 20.152 11.008 18.676 9.46L21.664 6.94C23.14 8.704 25.228 11.476 26.416 13.24ZM45.136 23.176V20.584H33.724V23.176H45.136ZM47.836 25.984H42.472C43.192 26.956 44.056 27.82 44.992 28.54C45.856 27.892 46.936 27.028 47.836 25.984ZM85.888 39.376H75.556C73.396 39.376 71.992 38.98 71.992 36.424V20.188L69.688 20.764L69.22 17.164L71.992 16.48V8.704H75.772V15.544L79.372 14.644V6.328H82.936V13.78L90.388 11.944V22.456C90.388 27.064 89.992 28.504 84.664 28.54L83.368 24.796H83.728C86.788 24.796 86.86 24.508 86.86 22.888V16.516L82.936 17.488L82.972 30.556H79.372V18.352L75.772 19.252V34.768C75.772 35.596 76.168 35.668 76.744 35.668H85.24C87.4 35.668 87.94 35.056 88.192 29.656L91.828 31.78C91 38.764 89.812 39.376 85.888 39.376ZM69.616 28.576V32.464C66.736 33.976 61.804 35.884 58.528 36.892L57.736 32.896C58.996 32.608 60.4 32.176 61.876 31.708V20.008H58.492V16.336H61.876V7.408H65.584V16.336H68.788V20.008H65.584V30.412C67.06 29.836 68.464 29.224 69.616 28.576Z" fill="white"/>
</svg>
