<svg width="320" height="46" viewBox="0 0 320 46" fill="none" xmlns="http://www.w3.org/2000/svg">
<rect width="320" height="46" fill="#444444"/>
<path d="M90.0868 35.488H79.1788V40.348H75.3988V35.488H65.2828V32.104H75.3988V29.584H66.5068V26.416H75.3988V23.968H67.4068V20.728H75.3988V18.136H65.6068V14.752H75.3988V12.232H67.5508V8.92H75.3988V6.292H79.1788V8.92L88.1068 8.884V14.752H90.3748V18.136H88.1068V23.968H79.1788V26.416H89.1508V29.584H79.1788V32.104H90.0868V35.488ZM59.7388 39.052L56.4628 36.784C58.4788 33.904 60.8548 28.36 61.9348 24.688L65.0668 26.74C64.0948 30.556 62.0068 35.884 59.7388 39.052ZM66.1108 11.08L63.6988 14.248C62.2588 12.988 59.4148 10.756 57.5068 9.568L59.9188 6.436C61.8268 7.624 64.7788 9.82 66.1108 11.08ZM64.7428 19.072L62.5828 22.528C60.9268 21.124 58.0108 19.072 56.4628 18.136L58.6228 14.86C60.4228 15.796 63.0508 17.668 64.7428 19.072ZM84.5788 20.728V18.136H79.1788V20.728H84.5788ZM84.5788 14.752V12.232H79.1788V14.752H84.5788ZM130.011 36.568L128.319 40.132C125.187 39.052 122.379 37.54 120.003 35.668C117.519 37.648 114.423 39.34 111.003 40.312L109.311 36.748C112.155 36.1 114.963 34.948 117.339 33.292C114.891 30.736 113.055 27.676 111.939 24.112H110.643C110.355 30.16 109.239 36.064 106.467 40.24L103.767 36.964C106.143 33.04 107.115 27.82 107.115 18.316V10.36H116.691V6.292H120.327V10.36H129.003V18.676H125.403V14.032H120.327V20.584H127.887C127.455 25.696 125.655 30.016 122.703 33.364C124.755 34.66 127.167 35.74 130.011 36.568ZM99.3388 39.088L96.0628 36.748C98.4388 33.688 100.599 28.396 101.787 24.508L104.919 26.596C103.731 30.772 101.823 35.74 99.3388 39.088ZM116.691 20.584V14.032H110.715V20.584H116.691ZM123.783 24.112H115.611C116.511 26.92 117.951 29.26 119.967 31.204C121.803 29.224 123.099 26.812 123.783 24.112ZM105.963 11.152L103.515 14.356C101.895 12.88 99.1948 10.864 97.2508 9.604L99.6988 6.472C101.463 7.552 104.451 9.784 105.963 11.152ZM104.523 19.036L102.327 22.528C100.599 21.088 98.1508 19.288 96.1348 18.1L98.3308 14.788C100.239 15.832 103.191 17.956 104.523 19.036ZM177.921 40.204L176.445 36.388C180.441 36.28 180.837 36.244 180.837 34.12V11.296H169.317V23.14C169.317 29.116 169.245 34.984 167.481 40.276L164.097 37.72C165.717 33.688 165.825 28.108 165.825 23.104V7.804H184.401V33.832C184.401 38.944 183.789 39.952 177.921 40.204ZM164.061 38.8H156.285V40.276H152.685V28.864H164.061V38.8ZM179.433 34.732H170.721V25.264H179.433V34.732ZM180.117 23.176H170.073V20.296H173.529V17.452H170.433V14.608H173.529V11.908H176.589V14.608H179.793V17.452H176.589V20.296H180.117V23.176ZM164.781 16.588H151.425V13.204H164.781V16.588ZM163.629 11.116H153.117V7.804H163.629V11.116ZM163.629 21.736H153.117V18.676H163.629V21.736ZM163.629 26.812H153.117V23.788H163.629V26.812ZM160.713 35.668V31.924H156.069V35.668H160.713ZM176.805 31.816V28.18H173.349V31.816H176.805ZM224.721 39.268H191.313V35.956H196.029V21.268C194.913 21.736 193.761 22.168 192.609 22.492L190.773 18.748C196.209 17.668 200.637 15.364 203.625 12.988H192.033V9.532H206.073V6.292H209.781V9.532H224.001V12.988H212.337C215.505 15.652 220.113 17.632 225.333 18.532L223.533 22.384C222.309 22.06 221.121 21.628 219.969 21.16V35.956H224.721V39.268ZM216.297 35.956V33.508H199.737V35.956H216.297ZM216.297 30.988V28.684H199.737V30.988H216.297ZM216.297 26.128V23.932H199.737V26.128H216.297ZM209.781 20.8H219.141C215.325 19.108 212.121 16.696 209.781 14.104V20.8ZM206.073 20.8V14.212C203.877 16.696 200.673 19.108 197.037 20.8H206.073ZM262.917 31.78H259.137V28.576H249.525V40.348H245.457V28.576H236.133V31.78H232.353V11.98H245.457V6.292H249.525V11.98H262.917V31.78ZM259.137 24.832V15.76H249.525V24.832H259.137ZM245.457 24.832V15.76L236.133 15.724V24.832H245.457Z" fill="white"/>
</svg>
