<svg width="320" height="46" viewBox="0 0 320 46" fill="none" xmlns="http://www.w3.org/2000/svg">
<rect width="320" height="46" fill="#444444"/>
<path d="M57.904 35.488H46.996V40.348H43.216V35.488H33.1V32.104H43.216V29.584H34.324V26.416H43.216V23.968H35.224V20.728H43.216V18.136H33.424V14.752H43.216V12.232H35.368V8.92H43.216V6.292H46.996V8.92L55.924 8.884V14.752H58.192V18.136H55.924V23.968H46.996V26.416H56.968V29.584H46.996V32.104H57.904V35.488ZM27.556 39.052L24.28 36.784C26.296 33.904 28.672 28.36 29.752 24.688L32.884 26.74C31.912 30.556 29.824 35.884 27.556 39.052ZM33.928 11.08L31.516 14.248C30.076 12.988 27.232 10.756 25.324 9.568L27.736 6.436C29.644 7.624 32.596 9.82 33.928 11.08ZM32.56 19.072L30.4 22.528C28.744 21.124 25.828 19.072 24.28 18.136L26.44 14.86C28.24 15.796 30.868 17.668 32.56 19.072ZM52.396 20.728V18.136H46.996V20.728H52.396ZM52.396 14.752V12.232H46.996V14.752H52.396ZM97.828 36.568L96.136 40.132C93.004 39.052 90.196 37.54 87.82 35.668C85.336 37.648 82.24 39.34 78.82 40.312L77.128 36.748C79.972 36.1 82.78 34.948 85.156 33.292C82.708 30.736 80.872 27.676 79.756 24.112H78.46C78.172 30.16 77.056 36.064 74.284 40.24L71.584 36.964C73.96 33.04 74.932 27.82 74.932 18.316V10.36H84.508V6.292H88.144V10.36H96.82V18.676H93.22V14.032H88.144V20.584H95.704C95.272 25.696 93.472 30.016 90.52 33.364C92.572 34.66 94.984 35.74 97.828 36.568ZM67.156 39.088L63.88 36.748C66.256 33.688 68.416 28.396 69.604 24.508L72.736 26.596C71.548 30.772 69.64 35.74 67.156 39.088ZM84.508 20.584V14.032H78.532V20.584H84.508ZM91.6 24.112H83.428C84.328 26.92 85.768 29.26 87.784 31.204C89.62 29.224 90.916 26.812 91.6 24.112ZM73.78 11.152L71.332 14.356C69.712 12.88 67.012 10.864 65.068 9.604L67.516 6.472C69.28 7.552 72.268 9.784 73.78 11.152ZM72.34 19.036L70.144 22.528C68.416 21.088 65.968 19.288 63.952 18.1L66.148 14.788C68.056 15.832 71.008 17.956 72.34 19.036ZM121.228 39.7L119.032 35.992C127.168 35.164 132.856 31.456 132.856 24.04C132.856 17.668 129.616 13.276 123.208 12.412C121.48 24.076 118.852 31.42 116.836 34.336C115.468 36.28 113.812 37.252 111.94 37.252C108.556 37.252 104.236 33.76 104.236 26.2C104.236 16.552 112.084 8.92 121.552 8.92C130.912 8.92 137.104 14.536 137.104 24.076C137.104 30.196 133.864 37.972 121.228 39.7ZM111.688 33.076H111.76C115.432 33.076 118.384 17.092 118.852 12.556C113.272 13.744 108.196 19.144 108.196 26.416C108.196 29.404 109.816 33.076 111.688 33.076ZM164.464 39.268H156.652C154.132 39.268 152.872 38.476 152.872 36.28V15.4H157.012V33.868C157.012 34.984 157.336 35.272 158.056 35.272H163.78C165.58 35.272 166.3 34.552 166.516 26.848L170.62 28.576H170.656C170.044 38.296 168.352 39.268 164.464 39.268ZM177.424 31.708L173.716 34.084C172.528 29.332 170.332 23.068 168.172 18.568L171.7 16.84C173.896 21.088 176.092 26.74 177.424 31.708ZM145.996 35.02L142.576 32.104C144.628 28.036 145.96 22.348 146.356 17.236L150.172 18.568C149.704 23.572 148.336 30.196 145.996 35.02ZM167.02 11.116L164.788 14.752C161.296 12.808 157.12 11.008 153.232 9.784L155.32 6.4C159.244 7.66 163.456 9.316 167.02 11.116ZM199.924 38.656H186.64V40.276H183.364V14.212H187.864C187.864 13.204 187.9 11.908 187.9 10.9H182.572V7.336H200.284V10.9H195.352V14.212H199.924V38.656ZM210.184 39.232H205.9C203.236 39.232 201.976 38.44 201.976 36.064V18.928H211.048V10.936H201.868V7.336H214.9V22.528H205.684V34.48C205.684 35.524 206.188 35.632 206.872 35.632H209.788C211.912 35.632 212.524 35.596 213.064 28.468L216.664 30.484C215.656 38.908 214.54 39.232 210.184 39.232ZM196.864 29.368V27.1H194.488C192.832 27.1 192.292 26.128 192.292 24.328V17.524H190.852C190.708 23.104 190.168 26.128 188.548 29.152L186.424 26.848V29.368H196.864ZM196.864 35.272V32.536H186.424V35.272H196.864ZM196.864 23.86V17.524H194.848V22.924C194.848 23.68 195.1 23.86 195.928 23.86H196.864ZM188.296 17.524H186.424V26.272C187.792 24.076 188.188 21.448 188.296 17.524ZM192.292 14.212V10.9H190.924C190.924 11.872 190.888 13.168 190.888 14.212H192.292ZM255.652 34.12L253.852 38.08C251.908 36.172 250 34.48 248.02 33.22C247.444 37.72 244.168 39.304 239.992 39.304C235.24 39.304 232.036 36.82 232.036 33.364C232.036 28.972 236.896 27.316 240.352 27.316C241.648 27.316 242.872 27.46 244.132 27.748C244.06 25.012 243.844 21.844 243.736 19.072H247.84C247.948 22.312 248.056 25.768 248.092 29.116C250.72 30.34 253.276 32.068 255.652 34.12ZM227.068 33.4L223.288 31.852C226.996 26.668 229.948 20.728 232.108 15.4H224.764L224.8 11.764H233.188C233.836 10.036 234.304 8.38 234.736 6.94L238.912 7.516C238.48 8.848 238.012 10.288 237.472 11.764H242.62V15.4H236.356C233.944 21.268 230.812 27.748 227.068 33.4ZM256.192 13.42L255.508 17.416C253.132 16.696 250.144 16.228 247.552 16.228C246.472 16.228 245.464 16.336 244.6 16.516L244.276 12.808C245.428 12.628 246.94 12.52 248.524 12.52C251.116 12.52 253.996 12.772 256.192 13.42ZM244.204 31.348C243.016 30.952 241.828 30.736 240.568 30.736C239.38 30.736 235.708 30.952 235.708 33.184C235.708 34.732 237.688 35.704 239.992 35.704C243.16 35.704 244.096 34.264 244.204 31.348ZM291.292 23.968L294.676 27.388C290.644 34.624 284.38 39.376 276.352 39.376C271.564 39.376 267.352 37.216 267.352 29.872C267.352 22.564 267.496 15.22 267.496 7.912L272.032 8.056C271.672 15.112 271.492 22.204 271.492 29.26C271.492 33.436 273.256 35.2 276.64 35.2C284.992 35.2 289.852 27.028 291.292 23.968Z" fill="white"/>
</svg>
