<svg width="320" height="46" viewBox="0 0 320 46" fill="none" xmlns="http://www.w3.org/2000/svg">
<rect width="320" height="46" fill="#2594FC"/>
<path d="M54.124 40.348H50.272V38.728H35.368V40.276H31.516V30.556C29.464 31.996 27.484 33.184 25.792 34.12L23.668 30.736C27.772 28.828 32.092 26.452 35.332 22.312H24.856V18.712H37.636C38.248 17.488 38.788 16.156 39.22 14.644L42.928 15.724C42.604 16.768 42.244 17.776 41.812 18.712H57.58V22.312H39.832C39.004 23.536 38.068 24.688 37.06 25.732H54.124V40.348ZM57.292 13.204H49.012V16.516H45.196V13.204H36.916V16.516H33.1V13.204H25.036V9.496H33.1V6.292H36.916V9.496H45.196V6.292H49.012V9.496H57.292V13.204ZM50.272 35.2L50.308 29.296H35.368V35.2H50.272ZM82.672 40.276H78.568V24.544H64.096V20.62H78.568V11.476H66.4V7.588H95.2V11.476H82.672V20.62H97.504V24.544H82.672V40.276ZM121.228 39.7L119.032 35.992C127.168 35.164 132.856 31.456 132.856 24.04C132.856 17.668 129.616 13.276 123.208 12.412C121.48 24.076 118.852 31.42 116.836 34.336C115.468 36.28 113.812 37.252 111.94 37.252C108.556 37.252 104.236 33.76 104.236 26.2C104.236 16.552 112.084 8.92 121.552 8.92C130.912 8.92 137.104 14.536 137.104 24.076C137.104 30.196 133.864 37.972 121.228 39.7ZM111.688 33.076H111.76C115.432 33.076 118.384 17.092 118.852 12.556C113.272 13.744 108.196 19.144 108.196 26.416C108.196 29.404 109.816 33.076 111.688 33.076ZM176.56 34.804H173.716C172.744 39.304 170.548 40.312 164.968 40.312L163.6 36.892C164.536 36.928 165.328 36.928 165.976 36.928C168.568 36.856 169.396 36.424 169.9 34.804H158.02C157.804 35.812 157.588 36.676 157.408 37.324L153.664 36.532C154.492 33.472 155.14 29.872 155.608 26.2H152.692V22.96H156.004C156.22 20.656 156.364 18.352 156.472 16.192C155.752 17.092 154.96 17.992 154.168 18.784L152.224 15.22C155.104 12.628 156.796 9.496 157.804 6.256L161.368 6.832C161.224 7.408 161.008 8.056 160.756 8.704H176.488V12.16H159.136C158.668 12.952 158.2 13.78 157.624 14.572H175.084C175.048 17.38 174.976 20.224 174.868 22.96H177.028V26.2H174.724C174.616 28.072 174.436 29.908 174.22 31.6H176.56V34.804ZM146.176 39.088L143.08 36.532C145.312 33.976 148.012 28.432 149.308 24.58L152.332 26.848C150.928 31.132 148.732 35.92 146.176 39.088ZM153.124 11.188L150.676 14.356C149.2 12.988 146.248 10.756 144.412 9.604L146.86 6.508C149.02 7.876 151.756 9.964 153.124 11.188ZM151.54 19.216L149.236 22.564C147.724 21.232 145.096 19.252 143.224 17.992L145.456 14.824C147.292 15.904 150.28 18.1 151.54 19.216ZM166.048 31.6H170.62C170.836 29.98 171.016 28.144 171.124 26.2H166.768C166.552 28.216 166.3 30.124 166.048 31.6ZM158.38 31.6H162.772C163.024 30.016 163.276 28.144 163.492 26.2H159.208C158.992 27.964 158.704 29.8 158.38 31.6ZM171.268 22.96L171.448 17.812H167.272C167.236 19.324 167.128 21.124 167.02 22.96H171.268ZM159.604 22.96H163.78C163.924 21.124 163.996 19.324 164.032 17.812H159.964C159.892 19.324 159.784 21.088 159.604 22.96ZM214.432 40.276H210.724V38.26H188.512V40.276H184.804V15.04H196.108C196.756 13.888 197.368 12.592 197.764 11.44H183.076V7.804H216.16V11.44H201.904C201.472 12.7 200.968 13.96 200.356 15.04H214.432V40.276ZM210.724 34.84V18.496H206.224V34.84H210.724ZM192.976 34.84V18.496H188.512V34.84H192.976ZM202.516 34.84V31.492H196.684V34.84H202.516ZM202.516 28.324V24.976H196.684V28.324H202.516ZM202.516 21.808V18.496H196.684V21.808H202.516ZM256.264 36.496L254.644 40.276C249.532 39.736 244.384 38.332 239.776 36.28C235.456 38.224 230.056 39.808 223.576 40.312L222.136 36.496C226.78 36.316 231.46 35.632 235.78 34.264C233.764 33.112 231.892 31.816 230.236 30.376C228.652 31.168 227.032 31.888 225.376 32.464L223.432 28.756C229.012 27.424 232.756 25.552 235.168 22.852L238.66 23.32L237.508 20.512H238.372C242.296 20.512 242.332 20.26 242.332 18.388V12.196H237.148V13.276C237.148 16.804 235.888 21.952 230.812 25.012L228.112 22.24C232.324 19.9 233.44 16.588 233.44 13.276V12.196H223.18V8.632H237.148V6.292H241.216V8.632H255.148V12.196H246.04V18.208C246.04 23.356 245.392 23.86 238.948 24.04L238.912 23.932C238.408 24.508 237.832 25.048 237.256 25.588H250.792V28.576C249.46 30.16 247.084 32.248 243.664 34.264C247.768 35.632 252.124 36.352 256.264 36.496ZM255.904 20.872L252.808 23.176C251.224 20.188 249.352 17.164 248.056 15.292L251.08 13.42C252.628 15.544 254.5 18.352 255.904 20.872ZM225.34 22.816L222.46 20.08C224.404 18.316 225.988 15.904 226.888 13.168L230.128 14.572C229.156 17.632 227.536 20.548 225.34 22.816ZM246.148 28.648H233.224C235.132 30.268 237.328 31.636 239.704 32.716C242.044 31.636 244.24 30.304 246.148 28.648ZM287.116 39.844L285.532 35.848H286.324C290.968 35.812 291.328 35.02 291.328 23.32V17.272H288.232C288.088 26.056 287.116 34.444 282.004 40.348L279.7 37.54C275.308 38.188 267.532 38.944 262.564 39.124L261.808 35.92C264.22 35.848 266.992 35.704 269.728 35.488V32.824H262.96V30.052H269.728V27.964H262.996V16.948H269.728V14.968H262.024V12.124H269.728V10.324C267.568 10.432 265.408 10.468 263.572 10.468L262.528 7.48H263.824C268.468 7.48 275.488 7.156 278.944 6.436L280.312 9.388C278.512 9.712 275.992 9.964 273.292 10.144V12.124H280.924V14.968H273.292V16.948H280.096V27.964H273.292V30.052H280.168V32.824H273.292V35.2C275.956 34.984 278.44 34.696 280.348 34.444L280.384 35.74C283.552 31.24 284.416 25.012 284.524 17.272H281.86V13.528H284.56V6.292H288.232V13.528H295V23.5C295 37.756 294.496 39.592 287.116 39.844ZM276.928 25.624V23.392H273.112V25.624H276.928ZM269.872 25.624V23.392H266.164V25.624H269.872ZM276.928 21.412V19.288H273.112V21.412H276.928ZM269.872 21.412V19.288H266.164V21.412H269.872Z" fill="white"/>
</svg>
