<svg width="320" height="46" viewBox="0 0 320 46" fill="none" xmlns="http://www.w3.org/2000/svg">
<rect width="320" height="46" fill="#8F008C"/>
<path d="M49.9868 35.488H39.0788V40.348H35.2988V35.488H25.1828V32.104H35.2988V29.584H26.4068V26.416H35.2988V23.968H27.3068V20.728H35.2988V18.136H25.5068V14.752H35.2988V12.232H27.4508V8.92H35.2988V6.292H39.0788V8.92L48.0068 8.884V14.752H50.2748V18.136H48.0068V23.968H39.0788V26.416H49.0508V29.584H39.0788V32.104H49.9868V35.488ZM19.6388 39.052L16.3628 36.784C18.3788 33.904 20.7548 28.36 21.8348 24.688L24.9668 26.74C23.9948 30.556 21.9068 35.884 19.6388 39.052ZM26.0108 11.08L23.5988 14.248C22.1588 12.988 19.3148 10.756 17.4068 9.568L19.8188 6.436C21.7268 7.624 24.6788 9.82 26.0108 11.08ZM24.6428 19.072L22.4828 22.528C20.8268 21.124 17.9108 19.072 16.3628 18.136L18.5228 14.86C20.3228 15.796 22.9508 17.668 24.6428 19.072ZM44.4788 20.728V18.136H39.0788V20.728H44.4788ZM44.4788 14.752V12.232H39.0788V14.752H44.4788ZM89.9108 36.568L88.2188 40.132C85.0868 39.052 82.2788 37.54 79.9028 35.668C77.4188 37.648 74.3228 39.34 70.9028 40.312L69.2108 36.748C72.0548 36.1 74.8628 34.948 77.2388 33.292C74.7908 30.736 72.9548 27.676 71.8388 24.112H70.5428C70.2548 30.16 69.1388 36.064 66.3668 40.24L63.6668 36.964C66.0428 33.04 67.0148 27.82 67.0148 18.316V10.36H76.5908V6.292H80.2268V10.36H88.9028V18.676H85.3028V14.032H80.2268V20.584H87.7868C87.3548 25.696 85.5548 30.016 82.6028 33.364C84.6548 34.66 87.0668 35.74 89.9108 36.568ZM59.2388 39.088L55.9628 36.748C58.3388 33.688 60.4988 28.396 61.6868 24.508L64.8188 26.596C63.6308 30.772 61.7228 35.74 59.2388 39.088ZM76.5908 20.584V14.032H70.6148V20.584H76.5908ZM83.6828 24.112H75.5108C76.4108 26.92 77.8508 29.26 79.8668 31.204C81.7028 29.224 82.9988 26.812 83.6828 24.112ZM65.8628 11.152L63.4148 14.356C61.7948 12.88 59.0948 10.864 57.1508 9.604L59.5988 6.472C61.3628 7.552 64.3508 9.784 65.8628 11.152ZM64.4228 19.036L62.2268 22.528C60.4988 21.088 58.0508 19.288 56.0348 18.1L58.2308 14.788C60.1388 15.832 63.0908 17.956 64.4228 19.036ZM129.439 20.98H107.731V19.432L106.075 20.404C105.751 18.604 104.959 15.616 104.203 13.24V40.312H100.495V6.292H104.203V12.916L106.327 11.836C107.047 13.6 107.803 16.048 108.307 17.92H116.479V15.976H109.279V13.384H116.479V11.512H108.451V8.596H116.479V6.328H120.367V8.596H128.647V11.512H120.367V13.384H127.675V15.976H120.367V17.92H129.439V20.98ZM119.935 40.276L118.567 37.036C119.179 37.036 119.827 37.072 120.439 37.072C122.167 37.072 123.643 36.856 123.643 35.452V34.156H113.095V40.312H109.315V22.6H127.459V34.696C127.459 39.556 125.803 40.132 119.935 40.276ZM98.3708 25.804L95.4908 23.932C96.4268 20.224 96.6428 16.12 96.6788 11.692L99.4508 12.232C99.4148 16.984 99.1628 21.7 98.3708 25.804ZM123.643 31.672V29.692H113.095V31.672H123.643ZM123.643 27.208L123.679 25.336H113.095V27.208H123.643ZM169.291 37.072L167.167 40.276C165.763 39.232 164.251 37.9 163.135 36.532C161.839 38.152 160.291 39.412 158.959 40.348L156.835 37.252V40.312H153.271V7.372H168.355V10.756C168.355 17.596 167.923 18.424 161.047 18.46L159.679 15.04H161.227C164.611 15.04 164.683 14.896 164.683 12.304V10.936H156.835V20.332H168.463C168.391 24.256 167.383 30.16 165.151 34.048C166.411 35.416 167.887 36.316 169.291 37.072ZM145.675 40.312H141.967V34.192H136.099V30.7H141.967V27.028H135.487V23.572H138.943C138.547 22.132 137.935 20.332 137.503 19.108H135.055V15.652H141.967V12.412H136.243V9.028H141.967V6.292H145.675V9.028H151.399V12.412H145.675V15.652H152.371V19.108H150.067C149.779 20.404 149.275 22.168 148.735 23.572H152.263V27.028H145.675V30.7H151.687V34.192H145.675V40.312ZM157.915 23.788H156.835V37.108C158.095 36.496 159.679 35.668 161.191 34.048C159.607 31.168 158.347 27.856 157.915 23.788ZM142.255 23.572H145.243C145.855 22.132 146.359 20.368 146.647 19.108H140.995C141.391 20.368 141.895 22.168 142.255 23.572ZM164.935 23.788H161.155C161.407 26.416 161.983 29.116 163.099 31.564C164.179 29.152 164.827 26.128 164.935 23.788ZM219.145 39.52H213.925C211.873 39.52 210.217 39.304 210.217 35.884V30.484H204.241C203.017 35.236 199.957 38.62 192.757 40.312L190.813 36.64C196.501 35.668 199.201 33.796 200.425 30.484H192.361V26.884H201.145L201.181 26.704C201.289 25.264 201.325 23.824 201.361 22.312H198.301V21.016C196.393 22.24 194.341 23.284 192.145 24.112L190.381 20.512C192.685 19.9 194.845 18.928 196.753 17.74C195.025 16.264 192.973 14.896 191.245 13.924L193.585 10.936C195.673 12.268 197.797 13.888 199.741 15.58C201.505 14.068 202.909 12.448 203.773 10.9H195.277V7.336H208.525C209.245 8.56 210.073 9.748 210.973 10.864C212.773 9.64 214.357 8.092 215.653 6.364L218.389 8.668C217.021 10.216 215.149 11.98 213.277 13.312C214.069 14.068 214.933 14.788 215.905 15.436C217.921 13.924 219.541 12.16 220.873 10.288L223.573 12.664C222.313 14.212 220.729 15.868 218.929 17.272C220.621 18.172 222.529 18.928 224.689 19.54L223.033 23.32C221.125 22.564 219.253 21.7 217.489 20.692V22.312H213.889V26.884H222.745V30.484H213.889V34.804C213.889 35.812 214.465 35.848 215.113 35.848H218.641C220.045 35.848 220.405 35.704 220.801 31.348L224.401 33.184C223.429 39.232 222.385 39.52 219.145 39.52ZM201.433 18.748H214.393C211.585 16.768 209.173 14.464 207.409 11.872C205.897 14.392 203.881 16.696 201.433 18.748ZM210.217 26.884V22.312H205.033C205.033 23.68 204.997 25.012 204.889 26.38C204.889 26.56 204.853 26.74 204.853 26.884H210.217ZM264.253 36.64L261.913 40.168C254.029 37 249.817 31.492 247.081 24.76H246.397C245.281 26.092 243.913 27.352 242.329 28.468V35.812C245.173 35.452 247.945 34.984 250.069 34.444L250.105 38.044C245.389 39.124 238.441 40.024 233.617 40.312L232.897 36.604C234.589 36.568 236.569 36.424 238.621 36.244V30.7C236.245 32.032 233.725 33.112 231.313 33.94L229.837 30.088C234.589 29.044 239.089 26.92 242.149 24.76H230.593V21.232H244.957V18.46H233.365V15.076H244.957V12.52H231.853V8.992H244.957V6.292H248.845V8.992H262.381V12.52H248.845V15.076H261.085V18.46H248.845V21.232H263.641V24.76H250.789C251.761 26.74 252.805 28.468 254.029 29.98C256.045 28.72 257.629 27.28 259.033 25.372L262.273 27.64C260.725 29.296 258.421 31.168 256.333 32.356C258.385 34.12 260.905 35.524 264.253 36.64ZM302.017 31.78H298.237V28.576H288.625V40.348H284.557V28.576H275.233V31.78H271.453V11.98H284.557V6.292H288.625V11.98H302.017V31.78ZM298.237 24.832V15.76H288.625V24.832H298.237ZM284.557 24.832V15.76L275.233 15.724V24.832H284.557Z" fill="white"/>
</svg>
